<svg xmlns="http://www.w3.org/2000/svg" version="1.1" xmlns:xlink="http://www.w3.org/1999/xlink" xmlns:svgjs="http://svgjs.dev/svgjs" width="100%" height="100%" viewBox="0 0 1000 600"><rect width="1000" height="600" x="0" y="0" fill="#d1e9eeb3"/><g><rect width="333.3333333333333" height="333.3333333333333" y="216.63137535801036" fill="#3c1a5b" transform="matrix(0.6429740227611129,0,0,0.6429740227611129,0,53.549351968297515)" x="194.40914916992188"/><path d="M362.27959002973915 423.5865311434068L360.1158355120899 423.5865311434068Q357.0073431064529 423.5865311434068 354.81311317306205 422.3979899294868Q352.6188832396712 421.23992413130827 351.0036862053696 419.41139918681597Q349.4189645868096 417.58287424232356 348.29137420437263 415.32769347744966Q347.1637838219357 413.07251271257576 346.4018984283972 410.939233610668L346.4018984283972 410.939233610668L326.04432071304893 352.24358289246334L323.27105788056883 352.24358289246334L323.27105788056883 441.59750184665654Q323.27105788056883 445.010748409709 322.84440206018735 447.9973391523798Q322.41774623980575 451.0144053107922 320.95492628421187 453.33053690714917Q319.5225817443595 455.6161930877646 316.68836808039634 456.95711138039235Q313.85415441643323 458.2980296730201 308.91713706630384 458.2980296730201L308.91713706630384 458.2980296730201Q303.34013598560216 458.2980296730201 300.1402173327405 456.95711138039235Q296.90982326413734 455.6161930877646 295.2946262298358 453.33053690714917Q293.70990461127576 451.0144053107922 293.28324879089416 447.9973391523798Q292.8261175547711 445.010748409709 292.8261175547711 441.59750184665654L292.8261175547711 441.59750184665654L292.8261175547711 332.73931681787815Q292.8261175547711 328.1375290409057 293.10039629644496 323.7185937583825Q293.3746750381188 319.3301338916008 294.86797040945424 315.91688732854846Q296.36126578078967 312.4731653497545 299.6526106808759 310.4008370793298Q302.9134801652206 308.29803339316356 308.91713706630384 308.29803339316356L308.91713706630384 308.29803339316356L323.48438579075963 308.29803339316356Q327.1109602640028 308.29803339316356 329.6404197705506 308.57231213483743Q332.16987927709835 308.8465908765113 334.3031583790061 310.4008370793298Q336.4364374809138 311.9550832821483 338.53924116708004 315.3683298452007Q340.6115694375047 318.81205182399464 343.1410289440525 325.0595120510102Q345.67048845060026 331.33744769376733 348.99230876642804 341.0286298995768Q352.3141290822558 350.71981210538627 357.129244769419 364.8604050094606L357.129244769419 364.8604050094606L359.9025076018991 373.4544722485747L362.49291793992995 373.4544722485747L365.9061645029824 362.7271259075528Q370.294624369764 349.22651673405085 373.40311677540103 339.9010395171399Q376.511609181038 330.57556230022885 378.85821619313657 324.54142998340404Q381.23529862097666 318.4768222508377 383.0942989812105 315.21595276649305Q384.983774757186 311.9550832821483 387.0561030276106 310.4008370793298Q389.15890671377684 308.8465908765113 391.62741538884154 308.57231213483743Q394.0959240639062 308.29803339316356 397.63107228992476 308.29803339316356L397.63107228992476 308.29803339316356L413.26496056533443 308.29803339316356Q419.2686174664177 308.29803339316356 422.52948695076236 310.4008370793298Q425.79035643510707 312.4731653497545 427.3141272221841 315.91688732854846Q428.8074225935195 319.3301338916008 429.0817013351933 323.7185937583825Q429.32550466112565 328.1375290409057 429.32550466112565 332.73931681787815L429.32550466112565 332.73931681787815L429.32550466112565 441.59750184665654Q429.32550466112565 445.010748409709 428.8988488407441 447.9973391523798Q428.47219302036257 451.0144053107922 426.85699598606095 453.33053690714917Q425.2722743675009 455.6161930877646 422.04188029889775 456.95711138039235Q418.8419616460361 458.2980296730201 413.26496056533443 458.2980296730201L413.26496056533443 458.2980296730201Q408.3279432152051 458.2980296730201 405.4937295512419 456.95711138039235Q402.65951588727876 455.6161930877646 401.19669593168487 453.33053690714917Q399.7643513918325 451.0144053107922 399.337695571451 447.9973391523798Q398.91103975106944 445.010748409709 398.91103975106944 441.59750184665654L398.91103975106944 441.59750184665654L398.91103975106944 352.24358289246334L395.89397359265706 352.24358289246334L375.78019920324107 410.939233610668Q374.89641214673645 413.07251271257576 373.8297725957826 415.32769347744966Q372.7631330448287 417.58287424232356 371.14793601052713 419.41139918681597Q369.5632143919671 421.23992413130827 367.3994598743178 422.3979899294868Q365.26618077241005 423.5865311434068 362.27959002973915 423.5865311434068L362.27959002973915 423.5865311434068Z " fill="#d5dc58bf" transform="matrix(0.6429740227611129,0,0,0.6429740227611129,0,53.549351968297515)"/><path d="M680.1364184399247 422.9343970084841L677.9849032884096 422.9343970084841Q674.8939941975004 422.9343970084841 672.7121760156822 421.75257882666585Q670.5303578338641 420.6010636751507 668.9242972278034 418.78288185696897Q667.3485396520459 416.9647000387871 666.2273275308338 414.72227579636285Q665.1061154096217 412.4798515539386 664.3485396520459 410.3586394327265L664.3485396520459 410.3586394327265L644.1061154096217 351.9950030690901L641.3485396520459 351.9950030690901L641.3485396520459 440.843487917575Q641.3485396520459 444.23742731151435 640.9242972278034 447.20712428121135Q640.500054803561 450.20712428121135 639.0455093490157 452.5101545842417Q637.6212669247732 454.78288185696897 634.8030851065914 456.1162151903022Q631.9849032884096 457.4495485236356 627.0758123793187 457.4495485236356L627.0758123793187 457.4495485236356Q621.5303578338641 457.4495485236356 618.3485396520459 456.1162151903022Q615.1364184399247 454.78288185696897 613.5303578338641 452.5101545842417Q611.9546002581064 450.20712428121135 611.5303578338641 447.20712428121135Q611.0758123793187 444.23742731151435 611.0758123793187 440.843487917575L611.0758123793187 440.843487917575L611.0758123793187 332.6010636751507Q611.0758123793187 328.02530609939316 611.3485396520459 323.6313667054538Q611.6212669247732 319.2677303418174 613.1061154096217 315.87379094787804Q614.5909638944702 312.4495485236356 617.8636911671974 310.38894246302954Q621.1061154096217 308.29803337212047 627.0758123793187 308.29803337212047L627.0758123793187 308.29803337212047L641.5606608641672 308.29803337212047Q645.1667214702277 308.29803337212047 647.6818729853792 308.5707606448477Q650.1970245005307 308.843487917575 652.3182366217429 310.38894246302954Q654.4394487429549 311.9343970084841 656.5303578338641 315.3283364024235Q658.5909638944702 318.75257882666585 661.1061154096217 324.9647000387871Q663.6212669247732 331.20712428121135 666.9242972278034 340.843487917575Q670.2273275308338 350.4798515539386 675.0152063187126 364.5404576145447L675.0152063187126 364.5404576145447L677.7727820762883 373.0859121599992L680.3485396520459 373.0859121599992L683.7424790459853 362.4192454933326Q688.1061154096217 348.9950030690901 691.1970245005307 339.72227579636285Q694.2879335914398 330.4495485236356 696.6212669247732 324.4495485236356Q698.9849032884096 318.4192454933326 700.8333881368944 315.17682125090835Q702.7121760156822 311.9343970084841 704.7727820762883 310.38894246302954Q706.8636911671974 308.843487917575 709.3182366217428 308.5707606448477Q711.7727820762883 308.29803337212047 715.2879335914398 308.29803337212047L715.2879335914398 308.29803337212047L730.8333881368944 308.29803337212047Q736.8030851065913 308.29803337212047 740.0455093490156 310.38894246302954Q743.2879335914398 312.4495485236356 744.8030851065913 315.87379094787804Q746.2879335914398 319.2677303418174 746.5606608641671 323.6313667054538Q746.8030851065913 328.02530609939316 746.8030851065913 332.6010636751507L746.8030851065913 332.6010636751507L746.8030851065913 440.843487917575Q746.8030851065913 444.23742731151435 746.3788426823489 447.20712428121135Q745.9546002581066 450.20712428121135 744.3485396520459 452.5101545842417Q742.7727820762883 454.78288185696897 739.5606608641671 456.1162151903022Q736.3788426823489 457.4495485236356 730.8333881368944 457.4495485236356L730.8333881368944 457.4495485236356Q725.9242972278034 457.4495485236356 723.1061154096217 456.1162151903022Q720.2879335914398 454.78288185696897 718.8333881368944 452.5101545842417Q717.4091457126519 450.20712428121135 716.9849032884096 447.20712428121135Q716.5606608641671 444.23742731151435 716.5606608641671 440.843487917575L716.5606608641671 440.843487917575L716.5606608641671 351.9950030690901L713.5606608641671 351.9950030690901L693.5606608641672 410.3586394327265Q692.6818729853792 412.4798515539386 691.6212669247732 414.72227579636285Q690.5606608641672 416.9647000387871 688.9546002581064 418.78288185696897Q687.3788426823489 420.6010636751507 685.2273275308338 421.75257882666585Q683.1061154096217 422.9343970084841 680.1364184399247 422.9343970084841L680.1364184399247 422.9343970084841ZM772.5909638944702 417.3889424630296L772.5909638944702 390.9647000387871Q772.5909638944702 381.17682125090835 775.2576305611368 374.3586394327265Q777.9242972278034 367.5404576145447 782.1364184399247 362.9647000387871Q786.3485396520459 358.3586394327265 791.500054803561 355.813184887272Q796.6818729853792 353.26773034181736 801.6818729853792 351.9950030690901Q806.6818729853792 350.69197276605985 811.0152063187126 350.3889424630296Q815.3182366217428 350.0556091296962 817.7727820762883 350.0556091296962L817.7727820762883 350.0556091296962Q820.2273275308338 350.0556091296962 824.469751773258 350.3889424630296Q828.7424790459853 350.69197276605985 833.5909638944702 351.9950030690901Q838.439448742955 353.26773034181736 843.3788426823489 355.813184887272Q848.3485396520459 358.3586394327265 852.3485396520458 362.9647000387871Q856.3182366217428 367.5404576145447 858.8939941975004 374.3586394327265Q861.4394487429549 381.17682125090835 861.4394487429549 390.9647000387871L861.4394487429549 390.9647000387871L861.4394487429549 417.3889424630296Q861.4394487429549 427.20712428121135 858.8939941975004 434.0253060993931Q856.3182366217428 440.843487917575 852.3485396520458 445.4192454933326Q848.3485396520459 449.9950030690901 843.3788426823489 452.5404576145447Q838.439448742955 455.1162151903022 833.5909638944702 456.3889424630296Q828.7424790459853 457.66166973575685 824.469751773258 457.9950030690901Q820.2273275308338 458.29803337212047 817.7727820762883 458.29803337212047L817.7727820762883 458.29803337212047Q815.3182366217428 458.29803337212047 811.0152063187126 457.9950030690901Q806.6818729853792 457.66166973575685 801.6818729853792 456.3889424630296Q796.6818729853792 455.1162151903022 791.500054803561 452.5404576145447Q786.3485396520459 449.9950030690901 782.1364184399247 445.4192454933326Q777.9242972278034 440.843487917575 775.2576305611368 434.0253060993931Q772.5909638944702 427.20712428121135 772.5909638944702 417.3889424630296L772.5909638944702 417.3889424630296ZM805.4091457126519 386.29803337212047L805.4091457126519 424.843487917575Q805.500054803561 427.9343970084841 806.8939941975004 430.29803337212047L806.8939941975004 430.29803337212047Q808.0758123793186 432.4192454933326 810.5606608641671 434.0556091296962Q813.0758123793186 435.72227579636285 817.7727820762883 435.72227579636285L817.7727820762883 435.72227579636285Q822.2273275308338 435.72227579636285 824.6515699550762 434.0556091296962Q827.0455093490156 432.4192454933326 828.1970245005308 430.29803337212047L828.1970245005308 430.29803337212047Q829.469751773258 427.9343970084841 829.7121760156823 424.843487917575L829.7121760156823 424.843487917575L829.7121760156823 386.29803337212047Q829.469751773258 383.0859121599992 828.1970245005308 380.4192454933326L828.1970245005308 380.4192454933326Q827.0455093490156 378.29803337212047 824.6515699550762 376.4192454933326Q822.2273275308338 374.5707606448477 817.7727820762883 374.5707606448477L817.7727820762883 374.5707606448477Q813.0758123793186 374.5707606448477 810.5606608641671 376.4192454933326Q808.0758123793186 378.29803337212047 806.8939941975004 380.4192454933326L806.8939941975004 380.4192454933326Q805.500054803561 383.0859121599992 805.4091457126519 386.29803337212047L805.4091457126519 386.29803337212047ZM972.6515699550762 388.843487917575L972.6515699550762 433.14651822060534Q972.6515699550762 437.75257882666597 972.1364184399247 442.1162151903022Q971.5909638944701 446.4798515539386 969.8333881368943 449.8737909478781Q968.0758123793186 453.29803337212047 964.8333881368943 455.3586394327265Q961.5909638944701 457.4495485236356 956.0455093490156 457.4495485236356L956.0455093490156 457.4495485236356Q950.6212669247732 457.4495485236356 947.4091457126519 455.3586394327265Q944.2273275308338 453.29803337212047 942.5303578338641 449.8737909478781Q940.8030851065913 446.4798515539386 940.3182366217428 442.1162151903022Q939.8636911671974 437.75257882666597 939.8636911671974 433.14651822060534L939.8636911671974 433.14651822060534L939.8636911671974 391.6010636751507Q939.8636911671974 388.63136670545384 939.5909638944701 385.75257882666585Q939.3182366217428 382.873790947878 938.3485396520458 380.69197276605985Q937.4091457126519 378.5101545842417 935.5303578338641 377.17682125090835Q933.6818729853793 375.843487917575 930.469751773258 375.843487917575L930.469751773258 375.843487917575Q926.1061154096217 375.843487917575 923.439448742955 378.72227579636285Q920.7727820762883 381.6010636751507 919.2273275308338 386.6010636751507Q917.6818729853793 391.6010636751507 917.1667214702277 398.3889424630296Q916.6212669247732 405.14651822060534 916.6212669247732 412.9040939781811L916.6212669247732 412.9040939781811L916.6212669247732 433.14651822060534Q916.6212669247732 437.75257882666597 916.1061154096217 442.1162151903022Q915.5606608641671 446.4798515539386 913.8030851065913 449.8737909478781Q912.0455093490156 453.29803337212047 908.8030851065913 455.3586394327265Q905.5606608641671 457.4495485236356 900.0152063187126 457.4495485236356L900.0152063187126 457.4495485236356Q894.5909638944701 457.4495485236356 891.3788426823489 455.3586394327265Q888.1970245005308 453.29803337212047 886.469751773258 449.8737909478781Q884.7727820762883 446.4798515539386 884.2879335914398 442.1162151903022Q883.8030851065913 437.75257882666597 883.8030851065913 433.14651822060534L883.8030851065913 433.14651822060534L883.8030851065913 374.9950030690901Q883.8030851065913 370.4192454933326 884.1364184399247 366.0859121599992Q884.469751773258 361.78288185696897 886.0455093490156 358.4192454933326Q887.6515699550762 355.0556091296962 890.8939941975004 352.9950030690901Q894.1364184399247 350.9040939781811 900.0152063187126 350.9040939781811L900.0152063187126 350.9040939781811Q905.8636911671974 350.9040939781811 909.1667214702277 352.873790947878Q912.469751773258 354.843487917575 914.1364184399247 357.63136670545384Q915.7727820762883 360.3889424630296 916.1970245005308 363.4798515539386Q916.6212669247732 366.5707606448477 916.6212669247732 368.813184887272L916.6212669247732 368.813184887272Q917.469751773258 365.72227579636285 919.2879335914398 362.5404576145447Q921.1061154096217 359.3283364024235 923.9242972278035 356.78288185696897Q926.7424790459853 354.20712428121135 930.6818729853793 352.5707606448477Q934.6212669247732 350.9040939781811 939.8636911671974 350.9040939781811L939.8636911671974 350.9040939781811Q945.7121760156823 350.9040939781811 951.5606608641671 352.843487917575Q957.439448742955 354.75257882666585 962.1061154096217 359.23742731151435Q966.8030851065913 363.69197276605985 969.7424790459853 370.9343970084841Q972.6515699550762 378.17682125090835 972.6515699550762 388.843487917575L972.6515699550762 388.843487917575ZM1072.378842682349 377.75257882666585L1048.7424790459854 440.843487917575Q1046.378842682349 446.9950030690901 1044.348539652046 450.3586394327265Q1042.348539652046 453.72227579636285 1040.409145712652 455.3283364024235Q1038.500054803561 456.9040939781811 1036.59096389447 457.17682125090835Q1034.6818729853794 457.4495485236356 1032.530357833864 457.4495485236356L1032.530357833864 457.4495485236356Q1030.197024500531 457.4495485236356 1028.1667214702277 457.17682125090835Q1026.1364184399245 456.9040939781811 1024.1364184399247 455.3586394327265Q1022.1061154096217 453.813184887272 1019.9546002581066 450.4798515539386Q1017.8333881368943 447.11621519030234 1015.500054803561 440.843487917575L1015.500054803561 440.843487917575L991.4091457126519 377.75257882666585Q990.469751773258 375.20712428121135 989.6515699550762 372.26773034181747Q988.8636911671974 369.3586394327265 988.8636911671974 366.4798515539386L988.8636911671974 366.4798515539386Q988.8636911671974 363.3889424630296 989.6515699550762 360.5707606448477Q990.469751773258 357.72227579636285 992.2576305611368 355.6010636751507Q994.0758123793186 353.4798515539386 996.9546002581066 352.20712428121135Q999.8333881368944 350.9040939781811 1003.9849032884096 350.9040939781811L1003.9849032884096 350.9040939781811Q1006.9849032884096 350.9040939781811 1009.4697517732579 352.20712428121135Q1011.9849032884096 353.4798515539386 1013.9546002581066 355.6010636751507Q1015.9242972278035 357.72227579636285 1017.4091457126519 360.5101545842417Q1018.8939941975004 363.26773034181747 1019.7424790459853 366.26773034181747L1019.7424790459853 366.26773034181747L1031.6818729853794 405.0253060993932L1033.378842682349 405.0253060993932L1044.469751773258 366.26773034181747Q1045.227327530834 363.6010636751507 1046.59096389447 360.813184887272Q1047.9849032884094 358.0556091296962 1049.9546002581064 355.873790947878Q1051.9242972278034 353.69197276605985 1054.6515699550764 352.29803337212047Q1057.348539652046 350.9040939781811 1060.8636911671974 350.9040939781811L1060.8636911671974 350.9040939781811Q1064.7121760156824 350.9040939781811 1067.378842682349 352.23742731151435Q1070.0455093490154 353.5707606448477 1071.7424790459854 355.75257882666585Q1073.439448742955 357.9343970084841 1074.197024500531 360.813184887272Q1074.9242972278034 363.69197276605985 1074.9242972278034 366.69197276605985L1074.9242972278034 366.69197276605985Q1074.9242972278034 369.4495485236356 1074.257630561137 372.20712428121135Q1073.560660864167 374.9950030690901 1072.378842682349 377.75257882666585L1072.378842682349 377.75257882666585ZM1178.0758123793187 390.1162151903022L1178.0758123793187 396.72227579636285Q1178.0758123793187 398.4192454933326 1177.8636911671974 400.72227579636285Q1177.6515699550762 403.0253060993932 1176.1970245005307 405.0859121599992Q1174.7727820762884 407.17682125090835 1171.6818729853792 408.66166973575685Q1168.5909638944702 410.14651822060534 1162.9242972278034 410.14651822060534L1162.9242972278034 410.14651822060534L1120.530357833864 410.14651822060534L1120.530357833864 420.3889424630295Q1120.530357833864 422.9343970084841 1121.1667214702277 425.69197276605985Q1121.8030851065914 428.4798515539386 1123.348539652046 430.813184887272Q1124.8939941975004 433.14651822060534 1127.469751773258 434.66166973575685Q1130.0152063187124 436.14651822060534 1133.7424790459854 436.14651822060534L1133.7424790459854 436.14651822060534Q1138.0152063187124 436.14651822060534 1140.28793359144 435.1162151903022Q1142.5909638944702 434.1162151903022 1143.9242972278034 432.63136670545384Q1145.257630561137 431.14651822060534 1146.318236621743 429.4192454933326Q1147.378842682349 427.72227579636285 1149.1364184399247 426.23742731151435Q1150.8939941975004 424.75257882666585 1154.0455093490154 423.72227579636285Q1157.1970245005307 422.72227579636285 1162.7121760156824 422.72227579636285L1162.7121760156824 422.72227579636285Q1165.378842682349 422.72227579636285 1167.8939941975004 423.14651822060534Q1170.378842682349 423.5707606448477 1172.318236621743 424.75257882666585Q1174.227327530834 425.9040939781811 1175.409145712652 427.9950030690901Q1176.560660864167 430.0556091296962 1176.560660864167 433.3586394327265L1176.560660864167 433.3586394327265Q1176.560660864167 440.29803337212047 1172.1970245005307 444.9343970084841Q1167.8333881368944 449.5707606448477 1161.227327530834 452.3283364024235Q1154.6212669247732 455.1162151903022 1146.8939941975004 456.26773034181747Q1139.1667214702277 457.4495485236356 1132.469751773258 457.4495485236356L1132.469751773258 457.4495485236356Q1123.6212669247732 457.3283364024235 1115.621266924773 455.20712428121135Q1107.6515699550762 453.0859121599992 1101.530357833864 448.3889424630296Q1095.378842682349 443.69197276605985 1091.7727820762884 436.14651822060534Q1088.1364184399247 428.5707606448477 1088.1364184399247 417.6010636751507L1088.1364184399247 417.6010636751507L1088.1364184399247 392.66166973575685Q1088.1364184399247 382.5707606448477 1090.560660864167 375.5101545842417Q1092.9546002581064 368.4798515539386 1096.7727820762884 363.813184887272Q1100.6212669247732 359.1162151903022 1105.409145712652 356.5101545842416Q1110.197024500531 353.9040939781811 1115.1061154096217 352.63136670545373Q1120.0152063187124 351.3283364024235 1124.409145712652 351.0253060993932Q1128.8333881368944 350.69197276605985 1132.0455093490154 350.69197276605985L1132.0455093490154 350.69197276605985Q1142.8030851065914 350.69197276605985 1150.409145712652 352.63136670545373Q1158.0455093490154 354.5404576145447 1163.1364184399247 357.63136670545384Q1168.257630561137 360.72227579636285 1171.257630561137 364.75257882666585Q1174.227327530834 368.813184887272 1175.7121760156824 373.1162151903022Q1177.1970245005307 377.4495485236356 1177.6515699550762 381.873790947878Q1178.0758123793187 386.29803337212047 1178.0758123793187 390.1162151903022L1178.0758123793187 390.1162151903022ZM1120.530357833864 386.72227579636285L1120.530357833864 394.17682125090835L1147.1667214702277 394.17682125090835Q1147.1667214702277 389.14651822060534 1146.8939941975004 385.26773034181747Q1146.6212669247732 381.3889424630296 1145.318236621743 378.72227579636285Q1143.9849032884094 376.0556091296962 1141.1364184399247 374.66166973575685Q1138.318236621743 373.29803337212047 1133.1061154096217 373.29803337212047L1133.1061154096217 373.29803337212047Q1128.7424790459854 373.29803337212047 1126.2273275308337 374.66166973575685Q1123.7424790459854 376.0556091296962 1122.439448742955 378.14651822060534Q1121.1667214702277 380.20712428121135 1120.8636911671974 382.5707606448477Q1120.530357833864 384.9040939781811 1120.530357833864 386.72227579636285L1120.530357833864 386.72227579636285ZM1201.9242972278034 433.5707606448477L1201.9242972278034 331.9647000387871Q1201.9242972278034 327.4798515539386 1202.409145712652 323.20712428121135Q1202.8939941975004 318.9647000387871 1204.5909638944702 315.66166973575685Q1206.28793359144 312.3586394327265 1209.500054803561 310.3283364024235Q1212.6818729853792 308.29803337212047 1218.1061154096217 308.29803337212047L1218.1061154096217 308.29803337212047Q1223.651569955076 308.29803337212047 1226.8636911671974 310.3283364024235Q1230.0455093490154 312.3586394327265 1231.7121760156824 315.66166973575685Q1233.348539652046 318.9647000387871 1233.8333881368944 323.20712428121135Q1234.318236621743 327.4798515539386 1234.318236621743 331.9647000387871L1234.318236621743 331.9647000387871L1234.318236621743 433.5707606448477Q1234.318236621743 438.0556091296962 1233.8333881368944 442.3889424630296Q1233.348539652046 446.69197276605985 1231.7121760156824 450.0556091296962Q1230.0455093490154 453.3889424630295 1226.8636911671974 455.4192454933326Q1223.651569955076 457.4495485236356 1218.1061154096217 457.4495485236356L1218.1061154096217 457.4495485236356Q1212.6818729853792 457.4495485236356 1209.500054803561 455.4192454933326Q1206.28793359144 453.3889424630295 1204.5909638944702 450.0556091296962Q1202.8939941975004 446.69197276605985 1202.409145712652 442.3889424630296Q1201.9242972278034 438.0556091296962 1201.9242972278034 433.5707606448477L1201.9242972278034 433.5707606448477ZM1264.348539652046 433.5707606448477L1264.348539652046 331.9647000387871Q1264.348539652046 327.4798515539386 1264.8333881368944 323.20712428121135Q1265.318236621743 318.9647000387871 1267.0152063187124 315.66166973575685Q1268.7121760156824 312.3586394327265 1271.9242972278034 310.3283364024235Q1275.1061154096215 308.29803337212047 1280.560660864167 308.29803337212047L1280.560660864167 308.29803337212047Q1286.0758123793184 308.29803337212047 1289.28793359144 310.3283364024235Q1292.469751773258 312.3586394327265 1294.1364184399245 315.66166973575685Q1295.7727820762884 318.9647000387871 1296.257630561137 323.20712428121135Q1296.7424790459854 327.4798515539386 1296.7424790459854 331.9647000387871L1296.7424790459854 331.9647000387871L1296.7424790459854 433.5707606448477Q1296.7424790459854 438.0556091296962 1296.257630561137 442.3889424630296Q1295.7727820762884 446.69197276605985 1294.1364184399245 450.0556091296962Q1292.469751773258 453.3889424630295 1289.28793359144 455.4192454933326Q1286.0758123793184 457.4495485236356 1280.560660864167 457.4495485236356L1280.560660864167 457.4495485236356Q1275.1061154096215 457.4495485236356 1271.9242972278034 455.4192454933326Q1268.7121760156824 453.3889424630295 1267.0152063187124 450.0556091296962Q1265.318236621743 446.69197276605985 1264.8333881368944 442.3889424630296Q1264.348539652046 438.0556091296962 1264.348539652046 433.5707606448477L1264.348539652046 433.5707606448477ZM1328.28793359144 433.5707606448477L1328.28793359144 374.78288185696897Q1328.28793359144 370.29803337212047 1328.7424790459854 366.0556091296962Q1329.227327530834 361.78288185696897 1330.9546002581064 358.4192454933326Q1332.651569955076 355.0556091296962 1335.8333881368944 352.9950030690901Q1339.0455093490154 350.9040939781811 1344.469751773258 350.9040939781811L1344.469751773258 350.9040939781811Q1349.8939941975004 350.9040939781811 1353.1061154096215 352.9950030690901Q1356.28793359144 355.0556091296962 1357.9849032884094 358.4192454933326Q1359.7121760156824 361.78288185696897 1360.1970245005305 366.0556091296962Q1360.651569955076 370.29803337212047 1360.651569955076 374.78288185696897L1360.651569955076 374.78288185696897L1360.651569955076 433.5707606448477Q1360.651569955076 438.0556091296962 1360.1970245005305 442.3889424630296Q1359.7121760156824 446.69197276605985 1357.9849032884094 450.0556091296962Q1356.28793359144 453.3889424630295 1353.1061154096215 455.4192454933326Q1349.8939941975004 457.4495485236356 1344.469751773258 457.4495485236356L1344.469751773258 457.4495485236356Q1339.0455093490154 457.4495485236356 1335.8333881368944 455.4192454933326Q1332.651569955076 453.3889424630295 1330.9546002581064 450.0556091296962Q1329.227327530834 446.69197276605985 1328.7424790459854 442.3889424630296Q1328.28793359144 438.0556091296962 1328.28793359144 433.5707606448477L1328.28793359144 433.5707606448477ZM1360.8636911671974 324.4798515539386L1360.8636911671974 324.4798515539386Q1360.8636911671974 332.69197276605985 1356.621266924773 336.69197276605985Q1352.348539652046 340.69197276605985 1344.681872985379 340.69197276605985L1344.681872985379 340.69197276605985Q1337.0152063187124 340.69197276605985 1332.7424790459854 336.69197276605985Q1328.500054803561 332.69197276605985 1328.500054803561 324.4798515539386L1328.500054803561 324.4798515539386Q1328.500054803561 315.9647000387871 1332.7424790459854 312.1465182206053Q1337.0152063187124 308.29803337212047 1344.681872985379 308.29803337212047L1344.681872985379 308.29803337212047Q1352.8939941975004 308.29803337212047 1356.8939941975004 312.1465182206053Q1360.8636911671974 315.9647000387871 1360.8636911671974 324.4798515539386Z " fill="#3c1a5b" transform="matrix(0.6429740227611129,0,0,0.6429740227611129,0,53.549351968297515)"/></g></svg>